<?xml version="1.0" encoding="UTF-8" standalone="no"?>
<svg
   xmlns:dc="http://purl.org/dc/elements/1.1/"
   xmlns:cc="http://creativecommons.org/ns#"
   xmlns:rdf="http://www.w3.org/1999/02/22-rdf-syntax-ns#"
   xmlns:svg="http://www.w3.org/2000/svg"
   xmlns="http://www.w3.org/2000/svg"
   xmlns:xlink="http://www.w3.org/1999/xlink"
   xmlns:sodipodi="http://sodipodi.sourceforge.net/DTD/sodipodi-0.dtd"
   xmlns:inkscape="http://www.inkscape.org/namespaces/inkscape"
   version="1.0"
   width="100"
   height="100"
   viewBox="0 0 80 79.999999"
   preserveAspectRatio="xMidYMid meet"
   id="svg2"
   inkscape:version="0.91 r13725"
   sodipodi:docname="logo_cv_orlando2.svg">
  <defs
     id="defs12">
    <linearGradient
       inkscape:collect="always"
       id="linearGradient3348">
      <stop
         style="stop-color:#aa0000;stop-opacity:1"
         offset="0"
         id="stop3350" />
      <stop
         style="stop-color:#00aad4;stop-opacity:1"
         offset="0.35602352"
         id="stop3358" />
      <stop
         id="stop3360"
         offset="0.63242912"
         style="stop-color:#00aad4;stop-opacity:1" />
      <stop
         style="stop-color:#800000;stop-opacity:1"
         offset="1"
         id="stop3352" />
    </linearGradient>
    <linearGradient
       inkscape:collect="always"
       xlink:href="#linearGradient3348"
       id="linearGradient3354"
       x1="966.10144"
       y1="991.52545"
       x2="4830.5088"
       y2="5033.8984"
       gradientUnits="userSpaceOnUse" />
  </defs>
  <sodipodi:namedview
     pagecolor="#ffffff"
     bordercolor="#666666"
     borderopacity="1"
     objecttolerance="10"
     gridtolerance="10"
     guidetolerance="10"
     inkscape:pageopacity="0"
     inkscape:pageshadow="2"
     inkscape:window-width="1366"
     inkscape:window-height="705"
     id="namedview10"
     showgrid="false"
     inkscape:zoom="0.89001174"
     inkscape:cx="348.54886"
     inkscape:cy="5.3573349"
     inkscape:window-x="-8"
     inkscape:window-y="-8"
     inkscape:window-maximized="1"
     inkscape:current-layer="svg2"
     fit-margin-top="0"
     fit-margin-left="0"
     fit-margin-right="0"
     fit-margin-bottom="0"
     units="px" />
  <metadata
     id="metadata4">
Created by potrace 1.13, written by Peter Selinger 2001-2015
<rdf:RDF>
  <cc:Work
     rdf:about="">
    <dc:format>image/svg+xml</dc:format>
    <dc:type
       rdf:resource="http://purl.org/dc/dcmitype/StillImage" />
    <dc:title></dc:title>
  </cc:Work>
</rdf:RDF>
</metadata>
  <g
     transform="matrix(0.01623871,0,0,-0.01623253,-7.8514158,89.5285)"
     id="g6"
     style="fill:#000000;stroke:none">
    <path
       d="M 2825,5514 C 2398,5489 1996,5366 1660,5156 1475,5041 1356,4946 1204,4795 822,4414 589,3954 503,3410 c -26,-162 -26,-557 0,-720 45,-287 130,-547 257,-786 272,-514 707,-912 1248,-1138 169,-71 441,-141 647,-167 130,-16 464,-16 585,0 392,52 777,196 1083,403 214,145 448,367 592,563 333,451 495,939 495,1489 0,536 -167,1038 -492,1477 -388,523 -1015,890 -1649,962 -144,17 -347,26 -444,21 z m 426,-379 c 138,-21 217,-40 359,-87 528,-173 968,-556 1223,-1065 74,-146 150,-373 183,-548 25,-128 28,-161 28,-380 0,-185 -4,-260 -17,-329 -9,-49 -19,-92 -23,-95 -3,-3 -150,-7 -327,-8 l -322,-1 0,-179 0,-178 217,-3 217,-2 -6,-33 c -23,-125 -96,-316 -156,-412 -185,-295 -472,-497 -804,-564 -139,-29 -337,-29 -476,0 -357,72 -666,304 -839,629 -19,36 -42,85 -52,110 -10,25 -20,51 -23,58 -3,7 4,12 20,12 48,0 259,41 340,66 103,32 319,137 417,203 82,54 239,196 308,276 50,58 141,184 169,235 136,245 189,419 219,713 l 6,58 31,-7 c 50,-11 200,-79 274,-125 38,-23 101,-69 141,-101 l 72,-59 0,230 0,230 -57,34 c -119,72 -237,119 -401,162 -106,28 -112,31 -112,50 0,17 -55,185 -76,234 -134,305 -323,534 -588,712 -87,59 -267,151 -320,165 -14,3 -26,11 -26,17 0,14 275,2 401,-18 z m -746,-280 c 174,-31 294,-73 425,-151 197,-117 354,-281 461,-479 32,-59 89,-188 89,-202 0,-2 -11,-3 -24,-3 -115,0 -427,-85 -560,-152 -506,-255 -833,-728 -887,-1280 l -12,-125 -42,12 c -321,97 -609,349 -753,659 -126,269 -147,605 -55,886 58,178 184,380 320,512 64,62 221,171 313,218 201,102 497,144 725,105 z M 3537,3570 c -32,-449 -308,-851 -713,-1035 -94,-43 -247,-90 -324,-99 -30,-4 -72,-9 -92,-12 l -38,-6 0,59 c 0,71 32,270 55,338 30,92 123,269 182,350 153,206 416,388 654,451 78,20 202,42 248,43 l 34,1 -6,-90 z M 1013,2729 c 88,-123 165,-208 270,-295 200,-168 449,-293 680,-342 l 79,-17 38,-115 c 117,-356 346,-650 670,-861 71,-46 258,-139 285,-141 11,0 0,-4 -25,-7 -70,-9 -336,5 -435,23 -735,137 -1327,628 -1600,1325 -72,187 -135,489 -135,656 l 0,75 55,-107 c 31,-60 84,-147 118,-194 z"
       id="path8"
       style="fill:url(#linearGradient3354);fill-opacity:1"
       inkscape:connector-curvature="0" />
  </g>
</svg>
