<?xml version="1.0" standalone="no"?>
<!DOCTYPE svg PUBLIC "-//W3C//DTD SVG 20010904//EN"
 "http://www.w3.org/TR/2001/REC-SVG-20010904/DTD/svg10.dtd">
<svg version="1.0" xmlns="http://www.w3.org/2000/svg"
 width="600.000000pt" height="600.000000pt" viewBox="0 0 600.000000 600.000000"
 preserveAspectRatio="xMidYMid meet">
<metadata>
Created by potrace 1.13, written by Peter Selinger 2001-2015
</metadata>
<g transform="translate(0.000000,600.000000) scale(0.100000,-0.100000)"
fill="#000000" stroke="none">
<path d="M2825 5514 c-427 -25 -829 -148 -1165 -358 -185 -115 -304 -210 -456
-361 -382 -381 -615 -841 -701 -1385 -26 -162 -26 -557 0 -720 45 -287 130
-547 257 -786 272 -514 707 -912 1248 -1138 169 -71 441 -141 647 -167 130
-16 464 -16 585 0 392 52 777 196 1083 403 214 145 448 367 592 563 333 451
495 939 495 1489 0 536 -167 1038 -492 1477 -388 523 -1015 890 -1649 962
-144 17 -347 26 -444 21z m426 -379 c138 -21 217 -40 359 -87 528 -173 968
-556 1223 -1065 74 -146 150 -373 183 -548 25 -128 28 -161 28 -380 0 -185 -4
-260 -17 -329 -9 -49 -19 -92 -23 -95 -3 -3 -150 -7 -327 -8 l-322 -1 0 -179
0 -178 217 -3 217 -2 -6 -33 c-23 -125 -96 -316 -156 -412 -185 -295 -472
-497 -804 -564 -139 -29 -337 -29 -476 0 -357 72 -666 304 -839 629 -19 36
-42 85 -52 110 -10 25 -20 51 -23 58 -3 7 4 12 20 12 48 0 259 41 340 66 103
32 319 137 417 203 82 54 239 196 308 276 50 58 141 184 169 235 136 245 189
419 219 713 l6 58 31 -7 c50 -11 200 -79 274 -125 38 -23 101 -69 141 -101
l72 -59 0 230 0 230 -57 34 c-119 72 -237 119 -401 162 -106 28 -112 31 -112
50 0 17 -55 185 -76 234 -134 305 -323 534 -588 712 -87 59 -267 151 -320 165
-14 3 -26 11 -26 17 0 14 275 2 401 -18z m-746 -280 c174 -31 294 -73 425
-151 197 -117 354 -281 461 -479 32 -59 89 -188 89 -202 0 -2 -11 -3 -24 -3
-115 0 -427 -85 -560 -152 -506 -255 -833 -728 -887 -1280 l-12 -125 -42 12
c-321 97 -609 349 -753 659 -126 269 -147 605 -55 886 58 178 184 380 320 512
64 62 221 171 313 218 201 102 497 144 725 105z m1032 -1285 c-32 -449 -308
-851 -713 -1035 -94 -43 -247 -90 -324 -99 -30 -4 -72 -9 -92 -12 l-38 -6 0
59 c0 71 32 270 55 338 30 92 123 269 182 350 153 206 416 388 654 451 78 20
202 42 248 43 l34 1 -6 -90z m-2524 -841 c88 -123 165 -208 270 -295 200 -168
449 -293 680 -342 l79 -17 38 -115 c117 -356 346 -650 670 -861 71 -46 258
-139 285 -141 11 0 0 -4 -25 -7 -70 -9 -336 5 -435 23 -735 137 -1327 628
-1600 1325 -72 187 -135 489 -135 656 l0 75 55 -107 c31 -60 84 -147 118 -194z"/>
</g>
</svg>
